<?xml version="1.0" encoding="utf-8"?>
<!-- Generator: Adobe Illustrator 16.0.3, SVG Export Plug-In . SVG Version: 6.00 Build 0)  -->
<!DOCTYPE svg PUBLIC "-//W3C//DTD SVG 1.1//EN" "http://www.w3.org/Graphics/SVG/1.1/DTD/svg11.dtd">
<svg version="1.1" id="Layer_1" xmlns="http://www.w3.org/2000/svg" xmlns:xlink="http://www.w3.org/1999/xlink" x="0px" y="0px"
	 width="400px" height="400px" viewBox="0 0 400 400" enable-background="new 0 0 400 400" xml:space="preserve">
<circle fill="#222222" cx="200" cy="200.26" r="200"/>
<g>
	<g>
		<path fill="#FFFFFF" d="M53.759,95.947h23.439c2.523,0,4.609,0.632,6.26,1.893c1.649,1.262,2.767,2.863,3.349,4.804
			l43.094,145.003c0.775,2.621,1.478,5.438,2.11,8.445c0.63,3.009,1.238,6.164,1.821,9.463c0.677-3.299,1.357-6.48,2.038-9.536
			c0.678-3.057,1.456-5.847,2.329-8.372l49.063-145.003c0.582-1.65,1.722-3.178,3.42-4.586c1.697-1.405,3.761-2.111,6.188-2.111
			h8.152c2.523,0,4.587,0.632,6.188,1.893c1.603,1.262,2.74,2.863,3.422,4.804l48.771,145.003c1.747,5.049,3.3,10.824,4.658,17.325
			c0.584-3.203,1.116-6.26,1.603-9.173c0.484-2.911,1.115-5.627,1.893-8.152l43.238-145.003c0.486-1.748,1.577-3.299,3.277-4.66
			c1.696-1.357,3.759-2.038,6.187-2.038h21.983l-65.077,208.625h-25.331c0,0-54.887-165.627-55.76-169.607
			c-0.487,1.942-55.905,169.607-55.905,169.607h-25.332L53.759,95.947z"/>
	</g>
	<g>
		<path fill="#F29C21" d="M281.164,304.572h-25.331c-2.525,0-18.954-57.069-18.954-57.069h-73.654c0,0-16.632,57.069-19.057,57.069
			h-25.332l67.742-208.625h28.68L281.164,304.572z M170.033,227.12h60.077c0,0-27.999-84.294-30.036-92.155
			C199.003,138.945,170.033,227.12,170.033,227.12z"/>
	</g>
</g>
</svg>
