<?xml version="1.0" encoding="utf-8"?>
<!-- Generator: Adobe Illustrator 16.0.3, SVG Export Plug-In . SVG Version: 6.00 Build 0)  -->
<!DOCTYPE svg PUBLIC "-//W3C//DTD SVG 1.1//EN" "http://www.w3.org/Graphics/SVG/1.1/DTD/svg11.dtd">
<svg version="1.1" id="Layer_1" xmlns="http://www.w3.org/2000/svg" xmlns:xlink="http://www.w3.org/1999/xlink" x="0px" y="0px"
	 width="312px" height="312px" viewBox="0 0 312 312" enable-background="new 0 0 312 312" xml:space="preserve">
<g>
	<path fill="none" stroke="#000000" stroke-width="3" stroke-miterlimit="10" d="M71.916,152.412c2.184,1.355,3.48,3.173,3.9,5.46
		c0.414,2.291-0.209,4.476-1.871,6.552c-1.668,2.082-3.955,3.33-6.865,3.744l-25.896,4.057c-2.706,0.418-5.148-0.049-7.332-1.404
		c-2.184-1.351-3.486-3.276-3.9-5.772c-0.419-2.286,0.205-4.417,1.872-6.396c1.662-1.975,3.949-3.169,6.864-3.588l25.896-4.056
		C67.285,150.594,69.732,151.062,71.916,152.412z M72.851,97.032c1.143,2.291,1.195,4.577,0.156,6.864
		c-1.043,2.291-2.807,3.798-5.303,4.524c-2.496,0.731-4.992,0.575-7.488-0.468l-24.024-10.92c-2.496-1.039-4.319-2.701-5.46-4.992
		c-1.146-2.287-1.199-4.573-0.156-6.864c1.038-2.286,2.754-3.792,5.148-4.524c2.389-0.726,4.938-0.468,7.644,0.78L67.392,92.04
		C69.888,93.083,71.707,94.746,72.851,97.032z M109.511,59.436c-0.418,2.603-1.666,4.524-3.744,5.772
		c-1.871,1.248-4.055,1.511-6.551,0.78c-2.496-0.726-4.475-2.232-5.928-4.524L78.935,39.312c-1.666-2.287-2.291-4.68-1.871-7.176
		c0.414-2.496,1.662-4.47,3.744-5.928c1.871-1.248,4.057-1.506,6.553-0.78c2.496,0.731,4.469,2.237,5.928,4.524l14.352,22.152
		C109.302,54.395,109.927,56.837,109.511,59.436z M227.137,127.92c0,0.419-0.055,0.731-0.156,0.936
		c-0.107,0.209-0.156,0.521-0.156,0.936v0.936c0,3.744-0.521,7.907-1.561,12.48c-1.457,7.907-4.211,16.067-8.268,24.492
		c-4.055,8.424-8.477,17.423-13.26,26.987c-3.119,6.24-5.305,11.91-6.553,17.004c-1.248,5.1-2.236,9.517-2.963,13.261
		c-0.732,3.743-1.512,6.708-2.34,8.892c-0.834,2.184-2.395,3.486-4.68,3.9h-59.282c-2.291-0.414-3.852-1.717-4.68-3.9
		c-0.834-2.184-1.613-5.148-2.34-8.892c-0.73-3.744-1.717-8.161-2.965-13.261c-1.246-5.094-3.432-10.764-6.551-17.004
		c-4.787-9.564-9.205-18.563-13.26-26.987c-4.057-8.425-6.816-16.585-8.268-24.492c-0.42-2.077-0.732-4.158-0.938-6.24
		c-0.209-2.077-0.418-4.158-0.623-6.24v-2.808c0-9.984,1.715-18.72,5.148-26.208c3.432-7.488,8.213-13.83,14.352-19.032
		c6.133-5.197,13.416-9.097,21.84-11.7c8.424-2.598,17.627-3.9,27.612-3.9h0.313h0.313c9.984,0,19.188,1.302,27.611,3.9
		c8.424,2.603,15.703,6.503,21.84,11.7c6.133,5.202,10.969,11.544,14.508,19.032C225.367,109.2,227.137,117.936,227.137,127.92z
		 M188.137,247.729c1.248,0,2.34,0.467,3.275,1.403s1.404,2.136,1.404,3.589v10.607c0,1.248-0.469,2.34-1.404,3.275
		c-0.936,0.937-2.027,1.404-3.275,1.404h-60.84c-1.459,0-2.652-0.468-3.588-1.404c-0.936-0.936-1.404-2.027-1.404-3.275v-10.607
		c0-3.326,1.662-4.992,4.992-4.992H188.137z M188.137,277.992c1.248,0,2.34,0.468,3.275,1.404c0.936,0.936,1.404,2.027,1.404,3.275
		v10.607c0,1.459-0.469,2.652-1.404,3.589s-2.027,1.403-3.275,1.403h-60.84c-3.33,0-4.992-1.662-4.992-4.992v-10.607
		c0-1.248,0.469-2.34,1.404-3.275c0.936-0.937,2.129-1.404,3.588-1.404H188.137z M164.113,51.168
		c-1.668,1.872-3.744,2.808-6.24,2.808c-2.292,0-4.266-0.936-5.928-2.808c-1.668-1.872-2.496-4.261-2.496-7.176V17.784
		c0-2.911,0.828-5.304,2.496-7.176c1.662-1.872,3.637-2.808,5.928-2.808c2.496,0,4.572,0.936,6.24,2.808
		c1.662,1.872,2.496,4.266,2.496,7.176v26.208C166.609,46.907,165.775,49.296,164.113,51.168z M205.609,59.436
		c0.414,2.603,1.662,4.524,3.742,5.772c2.078,1.248,4.314,1.511,6.709,0.78c2.389-0.726,4.416-2.232,6.084-4.524l14.352-22.152
		c1.453-2.287,2.029-4.68,1.717-7.176c-0.313-2.496-1.512-4.47-3.588-5.928c-2.082-1.248-4.32-1.506-6.709-0.78
		c-2.393,0.731-4.422,2.237-6.084,4.524L207.48,52.104C205.813,54.395,205.189,56.837,205.609,59.436z M243.361,152.412
		c-2.082,1.355-3.33,3.173-3.744,5.46c-0.42,2.291,0.156,4.476,1.715,6.552c1.561,2.082,3.793,3.33,6.709,3.744l25.895,4.057
		c2.912,0.418,5.408-0.049,7.488-1.404c2.078-1.351,3.326-3.276,3.744-5.772c0.414-2.286-0.209-4.417-1.871-6.396
		c-1.668-1.975-3.852-3.169-6.553-3.588l-25.896-4.056C247.934,150.594,245.438,151.062,243.361,152.412z M242.58,97.032
		c-1.145,2.291-1.199,4.577-0.156,6.864c1.039,2.291,2.756,3.798,5.148,4.524c2.389,0.731,4.836,0.575,7.332-0.468l24.023-10.92
		c2.701-1.039,4.574-2.701,5.617-4.992c1.037-2.287,1.037-4.573,0-6.864c-1.043-2.286-2.76-3.792-5.148-4.524
		c-2.395-0.726-4.836-0.468-7.332,0.78L248.041,92.04C245.545,93.083,243.721,94.746,242.58,97.032z"/>
</g>
</svg>
